<svg xmlns="http://www.w3.org/2000/svg" width="77" height="16" viewBox="0 0 77 16" fill="none"><path fill-rule="evenodd" clip-rule="evenodd" d="M6.06331 15.7605C10.3495 16.8292 14.6902 14.221 15.7587 9.9353C16.8272 5.64934 14.2192 1.30789 9.93327 0.239397C5.64831 -0.829093 1.3076 1.77938 0.239613 6.06559C-0.829377 10.351 1.77885 14.692 6.06331 15.7605ZM9.76868 4.84186C10.8769 5.2236 11.6874 5.79585 11.5282 6.86034C11.4129 7.63958 10.9809 8.01682 10.4074 8.14907C11.1949 8.55907 11.5957 9.18781 11.2139 10.2778C10.7402 11.6315 9.61468 11.7458 8.11795 11.4625L7.7547 12.9183L6.87696 12.6995L7.23546 11.2633C7.00796 11.2068 6.77546 11.1468 6.53596 11.0818L6.17622 12.5248L5.29948 12.306L5.66272 10.8475C5.58079 10.8266 5.49835 10.8051 5.41533 10.7834C5.2906 10.7509 5.16455 10.718 5.03698 10.686L3.89474 10.4013L4.33049 9.39656C4.33049 9.39656 4.97723 9.56856 4.96848 9.55581C5.21698 9.6173 5.32722 9.45531 5.37072 9.34731L5.94472 7.04608C5.96625 7.05125 5.98733 7.05654 6.00767 7.06164C6.0178 7.06418 6.02775 7.06667 6.03747 7.06908C6.00247 7.05508 5.97071 7.04608 5.94621 7.03983L6.35571 5.39709C6.36646 5.2106 6.30221 4.97535 5.94672 4.8866C5.96047 4.87735 5.30923 4.7281 5.30923 4.7281L5.54272 3.79061L6.75321 4.09286L6.75221 4.09736C6.9342 4.14261 7.1217 4.18561 7.3127 4.22911L7.67245 2.78762L8.54969 3.00637L8.19719 4.41961C8.43269 4.47336 8.66969 4.52761 8.90044 4.58511L9.25043 3.18112L10.1282 3.39987L9.76868 4.84186ZM6.99233 10.07C7.70853 10.2591 9.27382 10.6726 9.52268 9.67256C9.77768 8.65007 8.2596 8.30943 7.51885 8.14321C7.43607 8.12464 7.36301 8.10824 7.3032 8.09332L6.82121 10.0255C6.87032 10.0377 6.92789 10.053 6.99233 10.07ZM7.66768 7.24653C8.26481 7.40588 9.5673 7.75347 9.79418 6.84458C10.0259 5.91492 8.75995 5.63468 8.1417 5.49782C8.07215 5.48242 8.0108 5.46884 7.9607 5.45635L7.5237 7.20883C7.56498 7.21912 7.61342 7.23204 7.66768 7.24653Z" fill="white"></path><path d="M41.2384 11.4623C41.2384 10.5451 41.3869 9.68011 41.6837 8.87036C41.9799 8.05987 42.4067 7.35113 42.9604 6.74289C43.5122 6.13764 44.1844 5.65815 44.9756 5.30615C45.7631 4.95615 46.6449 4.77966 47.6166 4.77966C48.2249 4.77966 48.7681 4.83715 49.2461 4.9524C49.7261 5.06865 50.1603 5.2189 50.5531 5.4074L49.5196 7.75738C49.2496 7.64788 48.9693 7.55138 48.6796 7.46388C48.3896 7.37463 48.0356 7.33163 47.6169 7.33163C46.6166 7.33163 45.8259 7.67638 45.2374 8.36362C44.6511 9.05136 44.3559 9.9771 44.3559 11.1383C44.3559 11.8266 44.5044 12.3831 44.8024 12.8088C45.0989 13.2346 45.6466 13.4463 46.4419 13.4463C46.8344 13.4463 47.2131 13.4053 47.5759 13.3253C47.9414 13.2443 48.2641 13.1423 48.5483 13.0218L48.7721 15.4308C48.3931 15.5778 47.9751 15.7105 47.5166 15.8268C47.0571 15.939 46.5101 15.9973 45.8759 15.9973C45.0386 15.9973 44.3299 15.8748 43.7501 15.6335C43.1702 15.3885 42.6909 15.0633 42.3134 14.6513C41.9339 14.2383 41.6614 13.7561 41.4929 13.2026C41.3244 12.6496 41.2384 12.0686 41.2384 11.4623ZM54.5508 15.9973C53.8355 15.9973 53.2143 15.8883 52.6873 15.6725C52.1618 15.4568 51.7266 15.1541 51.3823 14.7616C51.0376 14.3711 50.7796 13.9083 50.6028 13.3751C50.4261 12.8421 50.3411 12.2518 50.3411 11.6051C50.3411 10.7938 50.4713 9.98285 50.7346 9.17411C50.9966 8.36362 51.3853 7.63538 51.8998 6.98813C52.4103 6.33989 53.0401 5.8099 53.7815 5.39665C54.5223 4.98615 55.3743 4.77966 56.3313 4.77966C57.0335 4.77966 57.6515 4.8889 58.1858 5.10465C58.7175 5.3199 59.1555 5.62515 59.5017 6.01564C59.8442 6.40814 60.1045 6.86889 60.2795 7.40288C60.4557 7.93487 60.5427 8.52662 60.5427 9.17386C60.5427 9.9826 60.4142 10.7936 60.1592 11.6048C59.904 12.4121 59.5252 13.1421 59.0252 13.7908C58.5262 14.4381 57.9023 14.9678 57.1528 15.3793C56.4043 15.7908 55.5363 15.9973 54.5508 15.9973ZM23.4436 4.8399C24.0923 4.8399 24.6528 4.95615 25.1238 5.1844C25.5971 5.4149 25.9876 5.7254 26.3008 6.11589C26.6098 6.50839 26.8398 6.96713 26.9883 7.49288C27.1358 8.02012 27.2098 8.58687 27.2098 9.19361C27.2098 10.1256 27.0391 11.0061 26.6943 11.8361C26.3496 12.6673 25.8818 13.3883 25.2868 14.0033C24.6923 14.6176 23.9903 15.1018 23.1809 15.4595C22.3726 15.8175 21.4939 15.9965 20.5504 15.9965C20.4284 15.9965 20.2139 15.993 19.9109 15.9868C19.6079 15.9805 19.2596 15.9493 18.8696 15.8965C18.4772 15.8418 18.0622 15.7608 17.6239 15.6523C17.1859 15.5458 16.7699 15.3965 16.3782 15.2071L19.8811 0.488198L23.0186 0.00195312L21.7644 5.22515C22.0329 5.10415 22.3034 5.0104 22.5734 4.94215C22.8434 4.8749 23.1334 4.8399 23.4436 4.8399ZM38.009 5.06515H41.3704L40.7634 7.53463H37.4222L36.5322 11.2596C36.4502 11.5701 36.4037 11.8601 36.3907 12.1296C36.376 12.4003 36.4102 12.6328 36.4912 12.8286C36.5717 13.0248 36.7165 13.1761 36.9265 13.2831C37.1355 13.3918 37.4347 13.4466 37.8272 13.4466C38.1505 13.4466 38.4655 13.4158 38.7699 13.3548C39.0727 13.2948 39.3794 13.2113 39.6899 13.1021L39.9134 15.411C39.5084 15.5595 39.0699 15.6873 38.5975 15.7948C38.1242 15.9038 37.564 15.9563 36.9165 15.9563C35.9855 15.9563 35.2637 15.818 34.7495 15.5428C34.236 15.2656 33.873 14.8868 33.6557 14.4073C33.4415 13.9296 33.3458 13.3788 33.3725 12.7583C33.4003 12.1363 33.494 11.4826 33.6557 10.7941L35.641 2.41243L38.7797 1.92618L38.009 5.06515ZM30.4635 15.7148H27.4668L29.9975 5.06565H33.0148L30.4635 15.7148ZM63.8082 15.7148H60.809L63.3397 5.06565H66.3584L63.8082 15.7148ZM68.5181 5.5499C68.7456 5.4834 68.9996 5.4034 69.2759 5.3164C69.5531 5.2294 69.8629 5.1484 70.2089 5.0754C70.5511 5.00015 70.9374 4.93915 71.3621 4.8919C71.7869 4.84365 72.2709 4.82015 72.8086 4.82015C74.3891 4.82015 75.4786 5.2804 76.0801 6.19814C76.6811 7.11588 76.7851 8.37187 76.3951 9.96385L75.0166 15.7138H72.0001L73.3361 10.0849C73.4176 9.73336 73.4816 9.39361 73.5288 9.06161C73.5766 8.73262 73.5738 8.44262 73.5181 8.19162C73.4648 7.94362 73.3394 7.74063 73.1446 7.58338C72.9469 7.42863 72.6481 7.35088 72.2429 7.35088C71.8521 7.35088 71.4546 7.39288 71.0489 7.47388L69.0846 15.7135H66.0669L68.5181 5.5499ZM20.8119 13.5076C21.2844 13.5076 21.7296 13.3913 22.1479 13.1631C22.5674 12.9346 22.9294 12.6261 23.2326 12.2418C23.5359 11.8558 23.7758 11.4211 23.9508 10.9353C24.1258 10.4496 24.2143 9.94285 24.2143 9.41561C24.2143 8.76787 24.1061 8.26262 23.8903 7.89737C23.6746 7.53363 23.2754 7.35063 22.6956 7.35063C22.5056 7.35063 22.2609 7.38688 21.9574 7.45163C21.6529 7.52038 21.3804 7.66313 21.1361 7.87787L19.8006 13.4248C19.8811 13.4391 19.9524 13.4526 20.0131 13.4653C20.0726 13.4791 20.1384 13.4888 20.2039 13.4956C20.2731 13.5033 20.3524 13.5073 20.4481 13.5073C20.5439 13.5073 20.6634 13.5076 20.8119 13.5076ZM56.0485 7.33188C55.6043 7.33188 55.2115 7.46088 54.8753 7.71563C54.5378 7.97337 54.2543 8.29737 54.0258 8.68812C53.7948 9.08061 53.6236 9.50861 53.5078 9.97385C53.3931 10.4401 53.3368 10.8808 53.3368 11.2996C53.3368 11.9753 53.4458 12.5016 53.66 12.8803C53.8773 13.2571 54.2675 13.4466 54.8348 13.4466C55.2805 13.4466 55.6713 13.3186 56.0095 13.0611C56.345 12.8053 56.6288 12.4811 56.859 12.0896C57.0885 11.6991 57.2613 11.2698 57.377 10.8038C57.4903 10.3391 57.548 9.89585 57.548 9.47786C57.548 8.80387 57.4395 8.27637 57.2233 7.89812C57.0073 7.52138 56.6153 7.33188 56.0485 7.33188ZM31.9218 3.76817C31.5035 3.76817 31.1243 3.64367 30.7878 3.39417C30.4485 3.14617 30.2805 2.76443 30.2805 2.24993C30.2805 1.96693 30.338 1.70144 30.452 1.45094C30.5678 1.20094 30.719 0.985693 30.9085 0.802695C31.0978 0.621197 31.317 0.476198 31.566 0.366949C31.8165 0.259451 32.083 0.205701 32.367 0.205701C32.785 0.205701 33.1623 0.3302 33.5 0.579697C33.8365 0.830445 34.0057 1.21219 34.0057 1.72394C34.0057 2.00793 33.9485 2.27443 33.8335 2.52443C33.7192 2.77443 33.568 2.98967 33.3785 3.17267C33.1908 3.35442 32.9695 3.49892 32.721 3.60717C32.4703 3.71642 32.2048 3.76817 31.9218 3.76817ZM65.2642 3.76817C64.8459 3.76817 64.4669 3.64367 64.1312 3.39417C63.7937 3.14617 63.6242 2.76443 63.6242 2.24993C63.6242 1.96693 63.6824 1.70144 63.7967 1.45094C63.9109 1.20094 64.0632 0.985693 64.2527 0.802695C64.4409 0.621197 64.6622 0.476198 64.9107 0.366949C65.1597 0.259451 65.4262 0.205701 65.7092 0.205701C66.1282 0.205701 66.5067 0.3302 66.8437 0.579697C67.1809 0.830445 67.3512 1.21219 67.3512 1.72394C67.3512 2.00793 67.2907 2.27443 67.1774 2.52443C67.0642 2.77443 66.9119 2.98967 66.7232 3.17267C66.5332 3.35442 66.3147 3.49892 66.0657 3.60717C65.8147 3.71642 65.5487 3.76817 65.2642 3.76817Z" fill="white"></path></svg>