<svg xmlns="http://www.w3.org/2000/svg" width="72" height="20" viewBox="0 0 72 20" fill="none"><g clip-path="url(#clip0_16081_21024)"><path d="M10.9165 0.0566406C5.42176 0.0566406 0.966553 4.51124 0.966553 10.0052C0.966553 15.4992 5.42176 19.9538 10.9165 19.9538C16.4113 19.9538 20.8665 15.4992 20.8665 10.0052C20.855 4.51124 16.4113 0.0566406 10.9165 0.0566406ZM11.065 10.3251L10.0369 13.8202H15.5659C15.7601 13.8202 15.8858 14.003 15.8401 14.1857L15.3603 15.8419C15.3146 16.0018 15.1661 16.116 14.9947 16.116H6.54127L7.96922 11.2845L6.39276 11.7757L6.73547 10.6335L8.32335 10.1423L10.3339 3.35761C10.3796 3.1977 10.5281 3.08348 10.6995 3.08348H12.8357C13.0299 3.08348 13.1555 3.26624 13.1098 3.44899L11.4077 9.18285L12.9842 8.69171L12.6415 9.84533L11.065 10.3251Z" fill="white"></path><path d="M26.6139 3.07227H25.9971C25.8828 3.07227 25.8029 3.1408 25.78 3.25502L24.1807 15.9221C24.1693 16.0477 24.2036 16.1048 24.3292 16.1048H24.9461C25.0718 16.1048 25.1403 16.0477 25.1631 15.9221L26.7739 3.25502C26.8081 3.12938 26.7396 3.07227 26.6139 3.07227Z" fill="white"></path><path d="M29.846 6.72852H29.2292C29.1149 6.72852 29.035 6.78563 29.0121 6.91127L27.8698 15.9347C27.8583 16.0603 27.9269 16.1174 28.0411 16.1174H28.658C28.7722 16.1174 28.8522 16.0603 28.875 15.9347L30.006 6.92269C30.0174 6.79705 29.9717 6.72852 29.846 6.72852Z" fill="white"></path><path d="M56.8738 6.58008C56.0171 6.58008 55.2745 6.81994 54.6462 7.31109C54.0179 7.80224 53.6067 8.44187 53.4011 9.24141C53.2297 9.89247 53.0812 10.8062 53.0127 11.423C52.9213 12.2568 52.8413 12.9422 52.8413 13.6046C52.8527 14.4156 53.1155 15.0552 53.6067 15.5464C54.1093 16.0261 54.7947 16.2774 55.6629 16.2774C56.5083 16.2774 57.2508 16.0375 57.8791 15.5464C58.5074 15.0667 58.9187 14.4156 59.1243 13.6046C59.2614 13.0678 59.3985 12.3482 59.5127 11.423C59.6269 10.4636 59.684 9.73256 59.684 9.22999C59.684 8.43045 59.4327 7.79081 58.9301 7.31109C58.416 6.81994 57.7306 6.58008 56.8738 6.58008ZM58.6102 10.5435C58.5531 11.0004 58.5188 11.2974 58.5074 11.423C58.3932 12.3596 58.2904 13.0221 58.199 13.4219C58.0619 14.0158 57.7649 14.4956 57.3194 14.8611C56.8738 15.2266 56.3484 15.3979 55.7658 15.3979C55.1717 15.3979 54.7034 15.2151 54.3492 14.8611C53.9951 14.507 53.8237 14.0387 53.8237 13.4561C53.8237 13.1478 53.858 12.7594 53.9151 12.3025C53.9722 11.8456 54.0065 11.5487 54.0179 11.423C54.1322 10.5321 54.235 9.86963 54.3264 9.42417C54.4635 8.83022 54.7605 8.35049 55.206 7.98499C55.6515 7.61948 56.177 7.44815 56.7596 7.44815C57.3536 7.44815 57.822 7.63091 58.1761 7.97357C58.5303 8.32765 58.7016 8.79595 58.7016 9.37848C58.7016 9.70972 58.6673 10.0866 58.6102 10.5435Z" fill="white"></path><path d="M63.2026 6.72656H62.5972C62.4829 6.72656 62.403 6.79509 62.3801 6.90932L61.2263 15.9327C61.2149 16.0584 61.2835 16.1155 61.3977 16.1155H62.0146C62.1288 16.1155 62.2088 16.0584 62.2316 15.9327L63.3626 6.92074C63.374 6.79509 63.3283 6.72656 63.2026 6.72656Z" fill="white"></path><path d="M70.9927 7.26404C70.5701 6.81858 69.976 6.60156 69.1992 6.60156C68.6966 6.60156 68.2397 6.69294 67.817 6.88711C67.3943 7.08129 67.0402 7.36684 66.7432 7.75519C66.686 7.80088 66.6632 7.78946 66.6632 7.72092L66.7546 6.92138C66.766 6.80716 66.7203 6.73863 66.6061 6.73863H65.9892C65.875 6.73863 65.795 6.80716 65.7722 6.92138L64.6412 15.9334C64.6298 16.0476 64.6641 16.1161 64.7897 16.1161H65.4066C65.5208 16.1161 65.6008 16.0476 65.6122 15.9334L66.4347 9.4685C66.5718 8.86313 66.8574 8.37198 67.2801 8.0179C67.7027 7.66381 68.2054 7.48106 68.7994 7.48106C69.3477 7.48106 69.7818 7.65239 70.1017 7.99505C70.4216 8.33771 70.5815 8.7946 70.5815 9.37712C70.5815 9.54845 70.5701 9.68551 70.5586 9.78831L69.7704 15.9334C69.7704 15.9905 69.7704 16.0248 69.7933 16.059C69.8275 16.0933 69.8732 16.1161 69.9418 16.1161H70.5586C70.6729 16.1161 70.7528 16.059 70.7643 15.9334L71.5525 9.63983C71.5753 9.38854 71.5868 9.20579 71.5868 9.08015C71.621 8.30345 71.4154 7.69808 70.9927 7.26404Z" fill="white"></path><path d="M30.2452 3.08392C29.8796 2.88974 29.4112 3.02681 29.2285 3.40373C29.0343 3.76924 29.1828 4.23754 29.5483 4.43172C29.9139 4.62589 30.3708 4.4774 30.565 4.1119C30.7592 3.73497 30.6222 3.27809 30.2452 3.08392Z" fill="white"></path><path d="M63.6464 3.08392C63.2809 2.88974 62.8125 3.02681 62.6297 3.40373C62.4355 3.76924 62.584 4.23754 62.9496 4.43172C63.3151 4.62589 63.7835 4.4774 63.9777 4.1119C64.1605 3.73497 64.012 3.27809 63.6464 3.08392Z" fill="white"></path><path d="M48.8331 6.57812C47.9763 6.57812 47.2338 6.82941 46.6055 7.30914C45.9772 7.80028 45.5659 8.43992 45.3603 9.23946C45.1889 9.89052 45.029 10.9185 44.9719 11.4211C44.8919 12.1521 44.8005 12.9402 44.8005 13.6027C44.812 14.4136 45.0747 15.0533 45.5659 15.5444C46.0686 16.0242 46.754 16.2754 47.6222 16.2754C48.4675 16.2754 49.2101 16.0356 49.8383 15.5444C50.4666 15.0647 50.8779 14.4136 51.0835 13.6027C51.095 13.5341 51.1178 13.4656 51.1292 13.3971C51.1406 13.34 51.0949 13.2943 51.0493 13.2943H50.2839C50.2382 13.2943 50.1811 13.3171 50.1696 13.3857C50.1696 13.3971 50.1582 13.4199 50.1582 13.4199C50.0211 14.0139 49.7241 14.4936 49.2786 14.8591C48.8331 15.2246 48.3076 15.3959 47.725 15.3959C47.131 15.3959 46.6626 15.2132 46.3085 14.8591C45.9543 14.505 45.783 14.0367 45.783 13.4542C45.783 13.1458 45.8172 12.7574 45.8744 12.3006C45.9201 11.9122 45.9657 11.5467 45.9772 11.4211C46.0914 10.5302 46.1942 9.86767 46.2856 9.42221C46.4227 8.82827 46.7197 8.34854 47.1652 7.98304C47.6107 7.61753 48.1362 7.4462 48.7188 7.4462C49.3014 7.4462 49.7812 7.61753 50.1354 7.97161C50.4895 8.3257 50.6609 8.794 50.6609 9.37652V9.38795C50.6609 9.4679 50.7294 9.53643 50.8094 9.53643H51.529C51.5862 9.53643 51.6433 9.49075 51.6433 9.42221C51.6433 9.34226 51.6433 9.27373 51.6433 9.20519C51.6433 8.40565 51.392 7.76602 50.8893 7.28629C50.3753 6.81799 49.7013 6.57812 48.8331 6.57812Z" fill="white"></path><path d="M42.6269 7.30914C42.1243 6.82941 41.4389 6.57812 40.5821 6.57812C39.7253 6.57812 38.9828 6.81799 38.3545 7.30914C37.7262 7.80028 37.3149 8.43992 37.1093 9.23946C36.938 9.89052 36.858 10.473 36.7209 11.4211C36.5953 12.3577 36.5496 12.9402 36.5496 13.6027C36.561 14.4136 36.8237 15.0533 37.3149 15.5444C37.8176 16.0242 38.503 16.2754 39.3712 16.2754C40.2165 16.2754 40.9591 16.0356 41.5874 15.5444C42.2157 15.0647 42.6269 14.4136 42.8325 13.6027C42.844 13.5341 42.8668 13.4656 42.8782 13.3971C42.8897 13.34 42.8554 13.2943 42.7983 13.2943H42.0329C41.9872 13.2943 41.9301 13.3171 41.9187 13.3857C41.9187 13.3971 41.9072 13.4199 41.9072 13.4199C41.7702 14.0139 41.4731 14.4936 41.0276 14.8591C40.5821 15.2246 40.0566 15.3959 39.474 15.3959C38.88 15.3959 38.4116 15.2132 38.0575 14.8591C37.7033 14.505 37.532 14.0367 37.532 13.4542C37.532 13.1801 37.5548 12.8374 37.6005 12.4491L43.1524 10.7243C43.2666 10.6901 43.3123 10.6329 43.3352 10.4959C43.3695 10.2103 43.3923 9.71919 43.3923 9.21662C43.3809 8.49703 43.1296 7.78886 42.6269 7.30914ZM42.4099 9.90194C42.4099 9.95905 42.3756 10.0047 42.3185 10.0162L37.7148 11.4439C37.7148 11.4325 37.7148 11.4325 37.7148 11.4211C37.829 10.5302 37.9318 9.86767 38.0232 9.42221C38.1603 8.82827 38.4573 8.34854 38.9028 7.98304C39.3483 7.61753 39.8738 7.4462 40.4564 7.4462C41.0505 7.4462 41.5188 7.62895 41.873 7.97161C42.4327 8.55414 42.4441 9.14808 42.4099 9.90194Z" fill="white"></path><path d="M34.4389 15.1228C34.5532 15.0657 34.6788 15.1457 34.656 15.2713L34.576 15.8881C34.5646 15.9681 34.5075 16.0366 34.4389 16.0709C33.8906 16.2765 33.1252 16.3678 32.5083 16.0937C31.8001 15.7739 31.6173 15.0772 31.7201 14.2091L32.5312 7.59572L32.6454 6.64769L32.9196 4.54603C32.931 4.42039 33.011 4.36328 33.1366 4.36328H33.7307C33.8677 4.36328 33.902 4.44324 33.8792 4.54603L33.525 7.53861H35.4556C35.5699 7.53861 35.6155 7.60714 35.6155 7.72136L35.5584 8.1554C35.547 8.22393 35.5356 8.2582 35.5013 8.30389C35.467 8.33815 35.3985 8.34957 35.3528 8.34957H33.4336L32.7596 13.775C32.6911 14.3576 32.6111 14.883 32.9082 15.1685C33.2966 15.4884 34.0505 15.3056 34.4389 15.1228Z" fill="white"></path></g><defs><clipPath id="clip0_16081_21024"><rect width="70.7692" height="20" fill="white" transform="translate(0.909424)"></rect></clipPath></defs></svg>