<svg xmlns="http://www.w3.org/2000/svg" width="83" height="30" viewBox="0 0 83 30" fill="none"><path d="M34.9404 13.5742H33.726V21.4866H34.9404V13.5742Z" fill="white"></path><path d="M40.3817 10.2227H30.4827V11.4345H40.3817V10.2227Z" fill="white"></path><path d="M37.136 13.5742H35.9215V21.4866H37.136V13.5742Z" fill="white"></path><path d="M70.6877 21.4957H71.9132V16.7303L70.6877 15.3711V21.4957Z" fill="white"></path><path d="M77.1402 10.2232V19.058L68.472 9.44531V21.4953H69.6947V12.6577L78.3683 22.2732V10.2232H77.1402Z" fill="white"></path><path d="M60.5336 10.2168C57.4181 10.2168 54.8853 12.7442 54.8853 15.8529C54.8853 18.9616 57.4181 21.4889 60.5336 21.4889C63.6491 21.4889 66.182 18.9616 66.182 15.8529C66.182 12.7469 63.6491 10.2168 60.5336 10.2168ZM60.5336 20.2744C58.091 20.2744 56.1025 18.2929 56.1025 15.8529C56.1025 13.4128 58.0883 11.4313 60.5336 11.4313C62.9763 11.4313 64.9648 13.4128 64.9648 15.8529C64.9648 18.2901 62.9763 20.2744 60.5336 20.2744Z" fill="white"></path><path d="M60.5338 15.043C60.0852 15.043 59.7214 15.406 59.7214 15.8536C59.7214 16.3012 60.0852 16.6642 60.5338 16.6642C60.9824 16.6642 61.3462 16.3012 61.3462 15.8536C61.3462 15.406 60.9824 15.043 60.5338 15.043Z" fill="white"></path><path d="M52.7613 13.6819C52.7613 11.7768 51.2186 10.2266 49.3231 10.2266H42.8623V21.4987H44.0686V11.4493H49.3231C50.5403 11.4493 51.5305 12.451 51.5305 13.6819C51.5305 14.9074 50.554 15.9036 49.3477 15.9172L45.0615 15.9145V21.4987H46.2677V17.1372H49.0933L51.4019 21.496H52.8051L50.3953 16.9653C51.7876 16.504 52.7613 15.1612 52.7613 13.6819Z" fill="white"></path><path d="M22.1317 7.99207L5.67065 4.9707L14.3333 26.718L26.4014 12.0451L22.1317 7.99207ZM21.8691 9.32398L24.3883 11.7121L17.5008 12.9567L21.8691 9.32398ZM16.0046 12.7083L8.74512 6.7011L20.6081 8.8791L16.0046 12.7083ZM15.4849 13.7728L14.3032 23.5356L7.9218 7.50898L15.4849 13.7728ZM16.579 14.2886L24.205 12.9103L15.4603 23.5438L16.579 14.2886Z" fill="white"></path></svg>